<svg width="28" height="22" viewBox="0 0 28 22" fill="none" xmlns="http://www.w3.org/2000/svg">
<path d="M13.9999 17C10.8395 17 8.28122 14.5537 8.0458 11.4537L3.67498 8.07584C3.1004 8.79667 2.57165 9.55875 2.14499 10.3921C2.04967 10.5806 2.00001 10.7889 2.00001 11.0002C2.00001 11.2115 2.04967 11.4198 2.14499 11.6083C4.40456 16.0171 8.87788 19 13.9999 19C15.1212 19 16.2029 18.8333 17.2454 18.5641L15.0833 16.8912C14.7262 16.9602 14.3636 16.9966 13.9999 17ZM27.0757 19.4208L22.4695 15.8608C23.8687 14.6816 25.0195 13.2359 25.8549 11.6079C25.9502 11.4194 25.9999 11.2111 25.9999 10.9998C25.9999 10.7885 25.9502 10.5802 25.8549 10.3917C23.5953 5.98293 19.122 3.00002 13.9999 3.00002C11.8547 3.00262 9.74439 3.54267 7.86164 4.57085L2.56082 0.473778C2.4917 0.419989 2.41265 0.380349 2.3282 0.357122C2.24375 0.333895 2.15555 0.327536 2.06864 0.338409C1.98173 0.349282 1.89782 0.377174 1.8217 0.420491C1.74557 0.463808 1.67873 0.5217 1.62499 0.590861L0.807074 1.64377C0.698574 1.78335 0.649956 1.96031 0.671912 2.13573C0.693869 2.31114 0.784602 2.47066 0.924157 2.57919L25.4391 21.5262C25.5082 21.58 25.5873 21.6196 25.6717 21.6429C25.7562 21.6661 25.8443 21.6725 25.9313 21.6616C26.0182 21.6507 26.1021 21.6228 26.1782 21.5795C26.2543 21.5362 26.3212 21.4783 26.3749 21.4091L27.1932 20.3562C27.3017 20.2166 27.3502 20.0396 27.3282 19.8642C27.3062 19.6888 27.2154 19.5293 27.0757 19.4208ZM19.4208 13.5042L17.7833 12.2383C17.9212 11.8398 17.9943 11.4217 17.9999 11C18.0081 10.3826 17.8713 9.77191 17.6006 9.21698C17.3299 8.66204 16.9328 8.17832 16.4413 7.80468C15.9497 7.43104 15.3774 7.17789 14.7702 7.06556C14.1631 6.95324 13.5381 6.98487 12.9454 7.15792C13.1966 7.49838 13.3325 7.91021 13.3333 8.33334C13.3271 8.47414 13.3056 8.61385 13.2691 8.75L10.202 6.37959C11.2675 5.48926 12.6115 5.00104 13.9999 5.00001C14.788 4.99958 15.5684 5.15447 16.2966 5.45584C17.0247 5.75721 17.6863 6.19915 18.2436 6.75639C18.8008 7.31363 19.2427 7.97523 19.5441 8.70338C19.8455 9.43153 20.0004 10.2119 19.9999 11C19.9999 11.9012 19.7795 12.7412 19.4208 13.5046V13.5042Z" fill="#026078"/>
</svg>
